<svg xmlns="http://www.w3.org/2000/svg" version="1.1" xmlns:xlink="http://www.w3.org/1999/xlink" xmlns:svgjs="http://svgjs.dev/svgjs" width="1000" height="1000" viewBox="0 0 1000 1000"><rect width="1000" height="1000" fill="#8dbdff"></rect><g transform="matrix(0.7,0,0,0.7,149.57575983908578,282.16010485829963)"><svg viewBox="0 0 396 247" data-background-color="#8dbdff" preserveAspectRatio="xMidYMid meet" height="623" width="1000" xmlns="http://www.w3.org/2000/svg" xmlns:xlink="http://www.w3.org/1999/xlink"><g id="tight-bounds" transform="matrix(1,0,0,1,0.23999871960290875,-0.09999999999999432)"><svg viewBox="0 0 395.52 247.2" height="247.2" width="395.52"><g><svg></svg></g><g><svg viewBox="0 0 395.52 247.2" height="247.2" width="395.52"><g><g><path xmlns="http://www.w3.org/2000/svg" d="M68.246 5.613c0-3.1 1.812-4.65 5.436-4.65 10.304 0 25.412-0.109 45.322-0.327 19.866-0.218 34.712-0.327 44.536-0.328 2.969 0 5.523 1.506 7.662 4.519l9.294 53.796-97.305 0zM232.242 3.845c0.873-2.576 22.726-3.864 65.559-3.864h25.608c2.008 0.786 3.297 2.598 3.865 5.436l-14.714 53.206-91.264 0zM273.831 210.608c-2.663 9.78-5.501 17.88-8.514 24.298-3.056 6.375-5.96 10.042-8.711 11.003-3.842 0-9.562-0.153-17.159-0.458-7.554-0.306-13.252-0.458-17.094-0.459h-11.527c-7.248 0.611-15.151 1.026-23.709 1.245-8.601 0.218-17.749 0.393-27.442 0.524-9.693 0.087-17.465 0.24-23.315 0.458l-16.533-58.642h159.67c-1.719 7.096-3.608 14.44-5.666 22.031z" fill="#374151" fill-rule="nonzero" stroke="none" stroke-width="1" stroke-linecap="butt" stroke-linejoin="miter" stroke-miterlimit="10" stroke-dasharray="" stroke-dashoffset="0" font-family="none" font-weight="none" font-size="none" text-anchor="none" style="mix-blend-mode: normal" data-fill-palette-color="tertiary"></path></g></g><g transform="matrix(1,0,0,1,0,67.84720754357076)"><svg viewBox="0 0 395.52 111.50558491285848" height="111.50558491285848" width="395.52"><g><svg viewBox="0 0 395.52 111.50558491285848" height="111.50558491285848" width="395.52"><g><svg viewBox="0 0 395.52 111.50558491285848" height="111.50558491285848" width="395.52"><g><svg viewBox="0 0 395.52 111.50558491285848" height="111.50558491285848" width="395.52"><g><svg viewBox="0 0 395.52 111.50558491285848" height="111.50558491285848" width="395.52"><g><svg viewBox="0 0 395.52 63.214506357903446" height="63.214506357903446" width="395.52"><g transform="matrix(1,0,0,1,0,0)"><svg width="395.52" viewBox="-0.8500000238418579 -36.869998931884766 236.13999938964844 37.75" height="63.214506357903446" data-palette-color="#374151"><path d="M9.55 0.88L-0.85-36.01Q-0.85-36.72-0.02-36.72L-0.02-36.72Q2.34-36.72 6.9-36.77 11.45-36.82 13.7-36.82L13.7-36.82Q14.38-36.82 14.87-36.13L14.87-36.13 19.07-11.82Q19.46-14.16 20.46-18.42 21.46-22.68 21.75-24.07L21.75-24.07 24.19-36.28Q24.39-36.87 34.2-36.87L34.2-36.87 38.11-36.87Q38.57-36.69 38.7-36.04L38.7-36.04 33.23-16.26Q33.06-15.6 32.58-13.34 32.1-11.08 31.63-9.02 31.15-6.96 30.54-4.71 29.93-2.47 29.24-1 28.54 0.46 27.91 0.68L27.91 0.68Q27.03 0.68 25.29 0.61 23.56 0.54 22.68 0.54L22.68 0.54 20.92 0.54Q19.26 0.68 17.3 0.73 15.33 0.78 13.11 0.81 10.89 0.83 9.55 0.88L9.55 0.88ZM38.47-1.81L38.47-31.54Q38.47-33.01 38.6-33.25L38.6-33.25Q38.82-33.59 39.3-33.59L39.3-33.59 39.89-33.59Q40.28-33.59 40.43-33.54L40.43-33.54 41.7-33.54Q44.16-33.54 49.16-33.67 54.15-33.79 56.64-33.79L56.64-33.79 63.13-33.79Q63.77-33.72 63.77-33.15L63.77-33.15 63.77-25Q63.74-24.85 63.68-24.74 63.62-24.63 63.58-24.6 63.55-24.56 63.35-24.43 63.16-24.29 63.08-24.22L63.08-24.22 51.76-24.22 51.76-21.19 52.83-21.19Q54.25-21.19 57.15-21.29 60.06-21.39 61.62-21.39L61.62-21.39Q62.3-21.39 62.55-21.12 62.79-20.85 62.79-20.36L62.79-20.36Q62.79-20.24 62.74-19.95 62.69-19.65 62.69-19.53L62.69-19.53 62.69-18.6Q62.69-18.51 62.72-18.2 62.74-17.9 62.74-17.68L62.74-17.68 62.74-16.99Q62.74-16.46 62.79-15.92 62.84-15.38 62.84-14.99L62.84-14.99 62.84-14.36Q62.72-14.06 62.64-13.96 62.57-13.87 62.4-13.87L62.4-13.87 62.4-13.92Q61.5-13.92 59.29-13.79 57.08-13.67 55.76-13.67L55.76-13.67 51.85-13.67 51.85-10.55Q52.05-10.55 52.44-10.52 52.83-10.5 53.02-10.5L53.02-10.5Q54.12-10.5 56.27-10.57 58.42-10.64 59.37-10.64L59.37-10.64 62.5-10.64Q63.77-10.64 64.11-10.35L64.11-10.35Q64.23-10.21 64.3-10.06L64.3-10.06 64.3-2.25Q64.3-1.73 64.11-1.46 63.91-1.2 63.38-1.17L63.38-1.17 39.21-1.17 38.47-1.81ZM67.13-0.98L67.13-33.59 71.67-33.59Q73.77-33.59 78.39-33.69 83-33.79 85.3-33.79L85.3-33.79Q87.28-33.79 89-33.57 90.72-33.35 92.39-32.76 94.06-32.18 95.25-31.27 96.43-30.37 97.16-28.89 97.9-27.42 97.9-25.49L97.9-25.49Q97.9-22.83 96.65-20.95 95.41-19.07 92.82-17.77L92.82-17.77Q93.84-17.33 94.6-16.63 95.36-15.92 95.76-15.41 96.16-14.89 96.54-13.68 96.92-12.48 96.99-12.1 97.07-11.72 97.31-10.23L97.31-10.23Q97.38-9.89 97.41-9.72L97.41-9.72Q97.5-8.74 98.24-6.14 98.97-3.54 98.97-2.15L98.97-2.15Q98.97-1.27 98.43-1.27L98.43-1.27Q96.97-1.27 94-1.25 91.04-1.22 89.59-1.22L89.59-1.22Q89.01-1.27 87.84-1.27L87.84-1.27 86.18-1.27Q85.69-1.42 85.22-2.78 84.76-4.15 84.57-5.86L84.57-5.86 84.03-10.21Q83.88-10.74 83.8-10.97 83.71-11.21 83.49-11.54 83.27-11.87 82.89-11.99 82.51-12.11 81.93-12.11L81.93-12.11 80.81-12.11 80.81-2.34Q80.81-2.27 80.81-2.11 80.81-1.95 80.81-1.89 80.81-1.83 80.81-1.71 80.81-1.59 80.78-1.53 80.76-1.46 80.73-1.37 80.71-1.27 80.67-1.23 80.63-1.2 80.57-1.14 80.51-1.07 80.43-1.05 80.34-1.03 80.23-1 80.12-0.98 79.98-0.98L79.98-0.98 67.13-0.98ZM80.95-20.7L80.95-20.7Q81-20.65 81.1-20.5 81.2-20.34 81.29-20.24 81.39-20.14 81.49-20.12L81.49-20.12Q82.22-20.12 82.95-20.28 83.69-20.43 84.46-20.8 85.22-21.17 85.7-21.92 86.18-22.68 86.18-23.73L86.18-23.73Q86.18-26.27 81.29-26.27L81.29-26.27Q80.81-26.15 80.81-25.88L80.81-25.88 80.81-24.95Q80.81-24.24 80.88-22.83 80.95-21.41 80.95-20.7ZM113.37-0.98L101.65-0.98 101.14-17.24Q101.14-18.92 101.19-21.04 101.24-23.17 101.31-24.88 101.38-26.59 101.45-28.76 101.51-30.93 101.51-32.71L101.51-32.71Q101.51-33.2 101.84-33.34 102.17-33.47 102.67-33.42 103.17-33.37 103.8-33.5L103.8-33.5 121.28-33.5Q122.77-33.5 124.26-33.12 125.75-32.74 127.18-31.9 128.61-31.05 129.69-29.85 130.78-28.64 131.45-26.83 132.12-25.02 132.12-22.85L132.12-22.85Q132.12-19.97 130.9-17.74 129.68-15.5 127.24-13.53L127.24-13.53Q124.24-11.96 120.01-11.72L120.01-11.72 119.23-11.72Q118.25-11.52 117.28-11.52L117.28-11.52 115.32-11.52Q115.18-11.52 115.08-11.47L115.08-11.47Q115.08-5.08 115.28-1.81L115.28-1.81Q115.15-1.32 114.75-1.15 114.35-0.98 113.37-0.98L113.37-0.98ZM113.86-19.63L113.86-19.63 113.86-19.19Q113.88-19.17 114.19-19.03 114.49-18.9 114.49-18.85L114.49-18.85 114.49-18.8Q114.45-18.8 114.45-18.9L114.45-18.9Q114.49-18.85 114.74-18.85L114.74-18.85Q116.91-18.85 118.41-19.82 119.91-20.8 119.91-22.85L119.91-22.85Q119.91-23.78 119.6-24.44 119.28-25.1 118.83-25.45 118.38-25.81 117.61-25.99 116.84-26.17 116.2-26.22 115.57-26.27 114.59-26.27L114.59-26.27Q114.57-26.25 114.4-26.1 114.23-25.95 114.15-25.88L114.15-25.88 114.15-23.34Q113.86-21 113.86-19.63ZM134.51-1.81L134.51-31.54Q134.51-33.01 134.63-33.25L134.63-33.25Q134.85-33.59 135.34-33.59L135.34-33.59 135.93-33.59Q136.32-33.59 136.46-33.54L136.46-33.54 137.73-33.54Q140.2-33.54 145.19-33.67 150.19-33.79 152.68-33.79L152.68-33.79 159.17-33.79Q159.8-33.72 159.8-33.15L159.8-33.15 159.8-25Q159.78-24.85 159.72-24.74 159.66-24.63 159.62-24.6 159.58-24.56 159.39-24.43 159.19-24.29 159.12-24.22L159.12-24.22 147.79-24.22 147.79-21.19 148.87-21.19Q150.28-21.19 153.19-21.29 156.09-21.39 157.66-21.39L157.66-21.39Q158.34-21.39 158.58-21.12 158.83-20.85 158.83-20.36L158.83-20.36Q158.83-20.24 158.78-19.95 158.73-19.65 158.73-19.53L158.73-19.53 158.73-18.6Q158.73-18.51 158.75-18.2 158.78-17.9 158.78-17.68L158.78-17.68 158.78-16.99Q158.78-16.46 158.83-15.92 158.88-15.38 158.88-14.99L158.88-14.99 158.88-14.36Q158.75-14.06 158.68-13.96 158.61-13.87 158.44-13.87L158.44-13.87 158.44-13.92Q157.53-13.92 155.32-13.79 153.12-13.67 151.8-13.67L151.8-13.67 147.89-13.67 147.89-10.55Q148.09-10.55 148.48-10.52 148.87-10.5 149.06-10.5L149.06-10.5Q150.16-10.5 152.31-10.57 154.46-10.64 155.41-10.64L155.41-10.64 158.53-10.64Q159.8-10.64 160.15-10.35L160.15-10.35Q160.27-10.21 160.34-10.06L160.34-10.06 160.34-2.25Q160.34-1.73 160.15-1.46 159.95-1.2 159.41-1.17L159.41-1.17 135.24-1.17 134.51-1.81ZM176.06-0.93L162.68-0.93 162.68-33.01Q162.71-33.2 163.07-33.36 163.44-33.52 163.51-33.59L163.51-33.59 176.65-33.59 176.65-1.81Q176.53-1.29 176.42-1.11 176.31-0.93 176.06-0.93L176.06-0.93ZM204.09-0.98L181.67-0.98Q181.6-1.07 181.44-1.2 181.28-1.32 181.09-1.66L181.09-1.66 181.09-12.21Q181.09-14.28 181.26-18.58 181.43-22.88 181.43-25.1L181.43-25.1Q181.43-25.59 181.33-27.17 181.24-28.76 181.24-29.69L181.24-29.69Q181.24-33.13 182.07-33.89L182.07-33.89Q187.14-33.79 189.63-33.79L189.63-33.79 191.98-33.79Q192.81-33.79 193.25-33.74L193.25-33.74Q193.3-33.79 193.49-33.79L193.49-33.79Q193.54-33.79 193.92-33.74 194.3-33.69 194.52-33.69L194.52-33.69Q195.13-33.62 195.54-32.67L195.54-32.67 195.54-32.32Q195.54-32.06 195.52-31.54 195.49-31.03 195.49-30.76L195.49-30.76 195.49-29.69Q195.47-29.57 195.19-29.26 194.91-28.96 194.91-28.76L194.91-28.76 194.91-10.94 205.26-10.94Q205.65-10.94 205.84-10.91 206.04-10.89 206.24-10.69 206.43-10.5 206.43-10.11L206.43-10.11 206.43-1.95Q206.24-0.98 204.09-0.98L204.09-0.98ZM206.28-24.71L206.28-24.71 206.28-33.5 234.7-33.5Q235.09-33.42 235.19-33.19 235.29-32.96 235.29-32.52L235.29-32.52 235.29-24.71Q235.24-24.12 234.6-24.12L234.6-24.12 227.67-24.12 227.67-1.66Q227.67-1.64 227.64-1.54 227.62-1.44 227.62-1.42 227.62-1.39 227.59-1.32 227.57-1.25 227.55-1.22 227.52-1.2 227.5-1.14 227.47-1.07 227.44-1.06 227.4-1.05 227.34-1.01 227.28-0.98 227.22-0.95 227.16-0.93 227.07-0.92 226.98-0.9 226.89-0.88L226.89-0.88 225.32-0.88Q222.2-0.88 222.2-1.07L222.2-1.07Q222-1.07 221.61-1.05 221.22-1.03 221.03-1.03L221.03-1.03 219.07-1.03Q218.51-1.03 217.48-1 216.44-0.98 215.85-0.98L215.85-0.98 214.48-0.98 213.51-1.66 213.51-6.93Q213.53-8.35 213.72-12.99 213.9-17.63 213.9-20.31L213.9-20.31 213.9-20.95Q213.9-21.14 213.92-21.56 213.95-21.97 213.95-22.17L213.95-22.17Q213.95-22.39 213.92-23.06 213.9-23.73 213.9-23.93L213.9-23.93 207.8-23.93Q207.26-23.93 206.77-24.11 206.28-24.29 206.28-24.71Z" opacity="1" transform="matrix(1,0,0,1,0,0)" fill="#374151" class="undefined-text-0" data-fill-palette-color="primary" id="text-0"></path></svg></g></svg></g><g transform="matrix(1,0,0,1,0,72.43901998367414)"><svg viewBox="0 0 395.52 39.06656492918433" height="39.06656492918433" width="395.52"><g transform="matrix(1,0,0,1,0,0)"><svg width="395.52" viewBox="2.0999999046325684 -37.5 391.80999755859375 38.70000076293945" height="39.06656492918433" data-palette-color="#374151"><path d="M27.2-19.05Q26.85-13.95 25.2-10.18 23.55-6.4 21.23-3.85 18.9-1.3 16.23-0.05 13.55 1.2 11.15 1.2L11.15 1.2Q9.3 1.2 7.63 0.4 5.95-0.4 4.73-2.02 3.5-3.65 2.8-6.1 2.1-8.55 2.1-11.85L2.1-11.85Q2.1-18.3 3.95-23.1 5.8-27.9 8.63-31.1 11.45-34.3 14.68-35.85 17.9-37.4 20.7-37.4L20.7-37.4Q22.7-37.4 24.18-36.7 25.65-36 26.6-34.83 27.55-33.65 27.98-32.08 28.4-30.5 28.4-28.75L28.4-28.75 21.55-27.45Q21.1-29.45 20.35-30.3 19.6-31.15 18.65-31.15L18.65-31.15Q17.4-31.15 15.9-29.38 14.4-27.6 13.1-24.8 11.8-22 10.9-18.65 10-15.3 9.9-12.05L9.9-12.05Q9.9-8.95 10.83-7.63 11.75-6.3 13.2-6.3L13.2-6.3Q14.2-6.3 15.28-6.8 16.35-7.3 17.2-8.22 18.05-9.15 18.63-10.38 19.2-11.6 19.25-13.05L19.25-13.05 13.9-12.25 14.85-17.2Q17.2-17.5 19.45-17.8L19.45-17.8Q21.35-18.05 23.48-18.4 25.6-18.75 27.2-19.05L27.2-19.05ZM60.91-2.45L44.76 0.05 51.31-35.5 67.11-36.85Q66.76-35.75 66.51-34.6L66.51-34.6Q66.26-33.65 66.03-32.63 65.81-31.6 65.66-30.8L65.66-30.8Q65.16-30.75 64.23-30.73 63.31-30.7 62.26-30.68 61.21-30.65 60.13-30.65 59.06-30.65 58.26-30.65L58.26-30.65 56.51-21.7Q58.06-21.8 59.41-21.85L59.41-21.85Q60.51-21.9 61.66-21.9 62.81-21.9 63.36-21.95L63.36-21.95Q63.16-20.55 62.98-19.2 62.81-17.85 62.56-16.45L62.56-16.45Q62.06-16.4 60.93-16.38 59.81-16.35 58.66-16.3L58.66-16.3Q57.36-16.25 55.81-16.2L55.81-16.2 54.11-7 61.41-8.15 60.91-2.45ZM94.31-1.35L85.31 0.05Q86.46-5.45 87.51-10.8L87.51-10.8Q87.96-13.05 88.41-15.5 88.86-17.95 89.29-20.33 89.71-22.7 90.04-24.93 90.36-27.15 90.61-29L90.61-29Q89.46-29.15 88.29-29.1 87.11-29.05 85.96-29.4L85.96-29.4Q86.01-30.2 86.01-31.25 86.01-32.3 86.06-33.35L86.06-33.35Q86.11-34.5 86.16-35.8L86.16-35.8Q87.46-35.7 88.76-35.65 90.06-35.6 91.36-35.6L91.36-35.6Q93.91-35.6 96.29-35.73 98.66-35.85 100.69-36.02 102.71-36.2 104.66-36.45L104.66-36.45 104.11-33.75Q103.86-32.6 103.64-31.4 103.41-30.2 103.21-29.35L103.21-29.35Q102.11-29.05 100.99-28.93 99.86-28.8 98.76-28.6L98.76-28.6Q98.41-26.9 98.01-24.83 97.61-22.75 97.24-20.53 96.86-18.3 96.51-16 96.16-13.7 95.81-11.6L95.81-11.6Q95.01-6.65 94.31-1.35L94.31-1.35ZM155.97-1Q155.52-1 154.2-0.88 152.87-0.75 151.47-0.58 150.07-0.4 148.95-0.25 147.82-0.1 147.72-0.05L147.72-0.05Q148.22-2.2 148.75-4.83 149.27-7.45 149.82-10.33 150.37-13.2 150.87-16.15 151.37-19.1 151.82-21.85L151.82-21.85Q152.87-28.25 153.92-35L153.92-35 161.72-36.25Q160.57-29.55 159.47-23.1L159.47-23.1Q159.02-20.35 158.55-17.4 158.07-14.45 157.6-11.55 157.12-8.65 156.72-5.93 156.32-3.2 155.97-1L155.97-1ZM190.48-1.35L181.48 0.05Q182.63-5.45 183.68-10.8L183.68-10.8Q184.13-13.05 184.58-15.5 185.03-17.95 185.45-20.33 185.88-22.7 186.2-24.93 186.53-27.15 186.78-29L186.78-29Q185.63-29.15 184.45-29.1 183.28-29.05 182.13-29.4L182.13-29.4Q182.18-30.2 182.18-31.25 182.18-32.3 182.23-33.35L182.23-33.35Q182.28-34.5 182.33-35.8L182.33-35.8Q183.63-35.7 184.93-35.65 186.23-35.6 187.53-35.6L187.53-35.6Q190.08-35.6 192.45-35.73 194.83-35.85 196.85-36.02 198.88-36.2 200.83-36.45L200.83-36.45 200.28-33.75Q200.03-32.6 199.8-31.4 199.58-30.2 199.38-29.35L199.38-29.35Q198.28-29.05 197.15-28.93 196.03-28.8 194.93-28.6L194.93-28.6Q194.58-26.9 194.18-24.83 193.78-22.75 193.4-20.53 193.03-18.3 192.68-16 192.33-13.7 191.98-11.6L191.98-11.6Q191.18-6.65 190.48-1.35L190.48-1.35ZM269.09-25.55Q269.09-22.95 268.34-20.03 267.59-17.1 266.24-14.23 264.89-11.35 262.92-8.72 260.94-6.1 258.44-4.13 255.94-2.15 252.97-0.95 249.99 0.25 246.64 0.25L246.64 0.25Q245.94 0.25 245.24 0.18 244.54 0.1 243.84 0L243.84 0Q245.19-6.9 246.49-13.45L246.49-13.45Q246.99-16.2 247.54-19.18 248.09-22.15 248.59-25.05 249.09-27.95 249.57-30.6 250.04-33.25 250.34-35.4L250.34-35.4Q252.49-35.8 254.69-36.15 256.89-36.5 259.19-36.5L259.19-36.5Q261.89-36.5 263.77-35.65 265.64-34.8 266.82-33.3 267.99-31.8 268.54-29.8 269.09-27.8 269.09-25.55L269.09-25.55ZM257.29-29.45Q256.74-26.5 256.14-23.8 255.54-21.1 254.94-18.35 254.34-15.6 253.74-12.6 253.14-9.6 252.59-6.05L252.59-6.05Q253.79-6.85 254.92-8.22 256.04-9.6 257.04-11.4 258.04-13.2 258.87-15.2 259.69-17.2 260.29-19.1 260.89-21 261.22-22.65 261.54-24.3 261.54-25.5L261.54-25.5Q261.54-27.35 260.52-28.4 259.49-29.45 257.29-29.45L257.29-29.45ZM313.1-27.05Q313.1-22.95 312.22-19.33 311.35-15.7 309.9-12.68 308.45-9.65 306.52-7.28 304.6-4.9 302.5-3.23 300.4-1.55 298.25-0.68 296.1 0.2 294.15 0.2L294.15 0.2Q292.5 0.2 291.15-0.43 289.8-1.05 288.8-2.27 287.8-3.5 287.22-5.43 286.65-7.35 286.65-10.05L286.65-10.05Q286.65-12.85 287.35-15.95 288.05-19.05 289.25-22.1 290.45-25.15 292.2-27.9 293.95-30.65 296.05-32.77 298.15-34.9 300.55-36.15 302.95-37.4 305.55-37.4L305.55-37.4Q307.8-37.4 309.27-36.48 310.75-35.55 311.57-34.08 312.4-32.6 312.75-30.75 313.1-28.9 313.1-27.05L313.1-27.05ZM294.1-11.35Q294.1-10.8 294.3-10.2 294.5-9.6 294.85-9.15 295.2-8.7 295.72-8.38 296.25-8.05 296.85-8.05L296.85-8.05Q299.1-8.05 300.85-9.6 302.6-11.15 303.75-13.4 304.9-15.65 305.52-18.2 306.15-20.75 306.15-22.85L306.15-22.85Q306.15-23.45 306.07-24.15 306-24.85 305.77-25.45 305.55-26.05 305.07-26.48 304.6-26.9 303.8-26.9L303.8-26.9Q302.2-26.9 300.85-26.1 299.5-25.3 298.42-23.98 297.35-22.65 296.55-20.98 295.75-19.3 295.17-17.57 294.6-15.85 294.35-14.2 294.1-12.55 294.1-11.35L294.1-11.35ZM336.7-1.45L329.4 0.25Q330.9-6.95 332.25-13.7L332.25-13.7Q332.75-16.6 333.33-19.7 333.9-22.8 334.4-25.83 334.9-28.85 335.3-31.63 335.7-34.4 335.9-36.65L335.9-36.65Q336.55-36.6 337-36.6 337.45-36.6 338.05-36.6L338.05-36.6Q338.75-36.6 339.75-36.63 340.75-36.65 341.75-36.7 342.75-36.75 343.9-36.8L343.9-36.8Q344.6-33.3 345.15-30.05L345.15-30.05Q345.7-27.2 346.28-24.2 346.85-21.2 347.3-19.1L347.3-19.1Q347.5-20.1 347.75-21.43 348-22.75 348.3-24.2 348.6-25.65 348.88-27.13 349.15-28.6 349.45-30.05L349.45-30.05Q350.15-33.3 350.9-36.75L350.9-36.75 357-37.5Q355.3-29.85 354-23L354-23Q353.4-20.05 352.83-17.03 352.25-14 351.75-11.23 351.25-8.45 350.9-6.08 350.55-3.7 350.35-2.1L350.35-2.1Q350.2-2.1 349.18-1.88 348.15-1.65 346.83-1.35 345.5-1.05 344.18-0.75 342.85-0.45 342.2-0.2L342.2-0.2Q341.9-4.2 341.55-7.8L341.55-7.8Q341.4-9.35 341.23-10.98 341.05-12.6 340.85-14.1 340.65-15.6 340.45-16.9 340.25-18.2 340.05-19.15L340.05-19.15Q339.9-18.2 339.65-16.95 339.4-15.7 339.15-14.3 338.9-12.9 338.65-11.38 338.4-9.85 338.1-8.45L338.1-8.45Q337.45-5.1 336.7-1.45L336.7-1.45ZM387.71-2.45L371.56 0.05 378.11-35.5 393.91-36.85Q393.56-35.75 393.31-34.6L393.31-34.6Q393.06-33.65 392.83-32.63 392.61-31.6 392.46-30.8L392.46-30.8Q391.96-30.75 391.03-30.73 390.11-30.7 389.06-30.68 388.01-30.65 386.93-30.65 385.86-30.65 385.06-30.65L385.06-30.65 383.31-21.7Q384.86-21.8 386.21-21.85L386.21-21.85Q387.31-21.9 388.46-21.9 389.61-21.9 390.16-21.95L390.16-21.95Q389.96-20.55 389.78-19.2 389.61-17.85 389.36-16.45L389.36-16.45Q388.86-16.4 387.73-16.38 386.61-16.35 385.46-16.3L385.46-16.3Q384.16-16.25 382.61-16.2L382.61-16.2 380.91-7 388.21-8.15 387.71-2.45Z" opacity="1" transform="matrix(1,0,0,1,0,0)" fill="#374151" class="undefined-text-1" data-fill-palette-color="secondary" id="text-1"></path></svg></g></svg></g></svg></g></svg></g><g></g></svg></g></svg></g></svg></g></svg></g><defs></defs></svg><rect width="395.52" height="247.2" fill="none" stroke="none" visibility="hidden"></rect></g></svg></g></svg>